<mxfile host="app.diagrams.net" modified="2023-09-04T20:11:49.839Z" agent="Mozilla/5.0 (Windows NT 10.0; Win64; x64) AppleWebKit/537.36 (KHTML, like Gecko) Chrome/116.0.0.0 Safari/537.36" etag="zZI0AzRfvs1qMv2ovJQC" version="21.7.2" type="github">
  <diagram id="R2lEEEUBdFMjLlhIrx00" name="Page-1">
    <mxGraphModel dx="2927" dy="2301" grid="1" gridSize="10" guides="1" tooltips="1" connect="1" arrows="1" fold="1" page="1" pageScale="1" pageWidth="827" pageHeight="1169" background="none" math="0" shadow="0" extFonts="Permanent Marker^https://fonts.googleapis.com/css?family=Permanent+Marker">
      <root>
        <mxCell id="0" />
        <mxCell id="1" parent="0" />
        <mxCell id="4nfFPMJlw5qFci8MI3dI-5" value="Book" style="swimlane;childLayout=stackLayout;horizontal=1;startSize=50;horizontalStack=0;rounded=1;fontSize=14;fontStyle=0;strokeWidth=2;resizeParent=0;resizeLast=1;shadow=0;dashed=0;align=center;arcSize=4;whiteSpace=wrap;html=1;fillColor=#dae8fc;strokeColor=#6c8ebf;" parent="1" vertex="1">
          <mxGeometry x="480" y="150" width="160" height="160" as="geometry" />
        </mxCell>
        <mxCell id="4nfFPMJlw5qFci8MI3dI-6" value="&amp;gt;Title&lt;br&gt;&amp;gt;Date of publishing of book&lt;br&gt;&amp;gt;Original title&lt;br&gt;&amp;gt;cover photo&lt;br&gt;&amp;gt;Rating&lt;br&gt;&amp;gt;Description&lt;br&gt;&amp;gt;ISBN" style="align=left;strokeColor=none;fillColor=none;spacingLeft=4;fontSize=12;verticalAlign=top;resizable=0;rotatable=0;part=1;html=1;" parent="4nfFPMJlw5qFci8MI3dI-5" vertex="1">
          <mxGeometry y="50" width="160" height="110" as="geometry" />
        </mxCell>
        <mxCell id="4nfFPMJlw5qFci8MI3dI-11" value="Author" style="swimlane;childLayout=stackLayout;horizontal=1;startSize=50;horizontalStack=0;rounded=1;fontSize=14;fontStyle=0;strokeWidth=2;resizeParent=0;resizeLast=1;shadow=0;dashed=0;align=center;arcSize=4;whiteSpace=wrap;html=1;fillColor=#dae8fc;strokeColor=#6c8ebf;" parent="1" vertex="1">
          <mxGeometry x="880" y="160" width="160" height="150" as="geometry" />
        </mxCell>
        <mxCell id="4nfFPMJlw5qFci8MI3dI-12" value="&amp;gt;Name&lt;br&gt;&amp;gt;About&lt;br&gt;&amp;gt;Dob&lt;br&gt;&amp;gt;Native place&lt;br&gt;&amp;gt;Number of books&lt;br&gt;&amp;gt;Number of followers" style="align=left;strokeColor=none;fillColor=none;spacingLeft=4;fontSize=12;verticalAlign=top;resizable=0;rotatable=0;part=1;html=1;" parent="4nfFPMJlw5qFci8MI3dI-11" vertex="1">
          <mxGeometry y="50" width="160" height="100" as="geometry" />
        </mxCell>
        <mxCell id="4nfFPMJlw5qFci8MI3dI-17" value="Review" style="swimlane;childLayout=stackLayout;horizontal=1;startSize=50;horizontalStack=0;rounded=1;fontSize=14;fontStyle=0;strokeWidth=2;resizeParent=0;resizeLast=1;shadow=0;dashed=0;align=center;arcSize=4;whiteSpace=wrap;html=1;fillColor=#dae8fc;strokeColor=#6c8ebf;" parent="1" vertex="1">
          <mxGeometry x="140" y="497.5" width="160" height="120" as="geometry" />
        </mxCell>
        <mxCell id="4nfFPMJlw5qFci8MI3dI-18" value="&amp;gt;Number of Likes&lt;br&gt;&amp;gt;Number of comments&lt;br&gt;&amp;gt;Date&amp;nbsp;" style="align=left;strokeColor=none;fillColor=none;spacingLeft=4;fontSize=12;verticalAlign=top;resizable=0;rotatable=0;part=1;html=1;" parent="4nfFPMJlw5qFci8MI3dI-17" vertex="1">
          <mxGeometry y="50" width="160" height="70" as="geometry" />
        </mxCell>
        <mxCell id="4nfFPMJlw5qFci8MI3dI-19" value="Genres" style="swimlane;childLayout=stackLayout;horizontal=1;startSize=50;horizontalStack=0;rounded=1;fontSize=14;fontStyle=0;strokeWidth=2;resizeParent=0;resizeLast=1;shadow=0;dashed=0;align=center;arcSize=4;whiteSpace=wrap;html=1;fillColor=#dae8fc;strokeColor=#6c8ebf;" parent="1" vertex="1">
          <mxGeometry x="130" y="-150" width="160" height="80" as="geometry" />
        </mxCell>
        <mxCell id="4nfFPMJlw5qFci8MI3dI-20" value="&amp;gt;Name" style="align=left;strokeColor=none;fillColor=none;spacingLeft=4;fontSize=12;verticalAlign=top;resizable=0;rotatable=0;part=1;html=1;" parent="4nfFPMJlw5qFci8MI3dI-19" vertex="1">
          <mxGeometry y="50" width="160" height="30" as="geometry" />
        </mxCell>
        <mxCell id="4nfFPMJlw5qFci8MI3dI-21" value="Series" style="swimlane;childLayout=stackLayout;horizontal=1;startSize=50;horizontalStack=0;rounded=1;fontSize=14;fontStyle=0;strokeWidth=2;resizeParent=0;resizeLast=1;shadow=0;dashed=0;align=center;arcSize=4;whiteSpace=wrap;html=1;fillColor=#dae8fc;strokeColor=#6c8ebf;" parent="1" vertex="1">
          <mxGeometry x="420" y="-290" width="160" height="120" as="geometry" />
        </mxCell>
        <mxCell id="4nfFPMJlw5qFci8MI3dI-22" value="&amp;gt;Name&lt;br&gt;&amp;gt;Description&lt;br&gt;&amp;gt;Number of primary work&lt;br&gt;&amp;gt;number of total work" style="align=left;strokeColor=none;fillColor=none;spacingLeft=4;fontSize=12;verticalAlign=top;resizable=0;rotatable=0;part=1;html=1;" parent="4nfFPMJlw5qFci8MI3dI-21" vertex="1">
          <mxGeometry y="50" width="160" height="70" as="geometry" />
        </mxCell>
        <mxCell id="4nfFPMJlw5qFci8MI3dI-23" value="Setting" style="swimlane;childLayout=stackLayout;horizontal=1;startSize=50;horizontalStack=0;rounded=1;fontSize=14;fontStyle=0;strokeWidth=2;resizeParent=0;resizeLast=1;shadow=0;dashed=0;align=center;arcSize=4;whiteSpace=wrap;html=1;fillColor=#dae8fc;strokeColor=#6c8ebf;" parent="1" vertex="1">
          <mxGeometry x="80" y="350" width="160" height="80" as="geometry" />
        </mxCell>
        <mxCell id="4nfFPMJlw5qFci8MI3dI-24" value="&amp;gt;Type" style="align=left;strokeColor=none;fillColor=none;spacingLeft=4;fontSize=12;verticalAlign=top;resizable=0;rotatable=0;part=1;html=1;" parent="4nfFPMJlw5qFci8MI3dI-23" vertex="1">
          <mxGeometry y="50" width="160" height="30" as="geometry" />
        </mxCell>
        <mxCell id="4nfFPMJlw5qFci8MI3dI-25" value="Award" style="swimlane;childLayout=stackLayout;horizontal=1;startSize=50;horizontalStack=0;rounded=1;fontSize=14;fontStyle=0;strokeWidth=2;resizeParent=0;resizeLast=1;shadow=0;dashed=0;align=center;arcSize=4;whiteSpace=wrap;html=1;fillColor=#dae8fc;strokeColor=#6c8ebf;" parent="1" vertex="1">
          <mxGeometry x="80" y="50" width="160" height="80" as="geometry" />
        </mxCell>
        <mxCell id="4nfFPMJlw5qFci8MI3dI-26" value="&amp;gt;Name" style="align=left;strokeColor=none;fillColor=none;spacingLeft=4;fontSize=12;verticalAlign=top;resizable=0;rotatable=0;part=1;html=1;" parent="4nfFPMJlw5qFci8MI3dI-25" vertex="1">
          <mxGeometry y="50" width="160" height="30" as="geometry" />
        </mxCell>
        <mxCell id="4nfFPMJlw5qFci8MI3dI-28" value="Edition" style="swimlane;childLayout=stackLayout;horizontal=1;startSize=50;horizontalStack=0;rounded=1;fontSize=14;fontStyle=0;strokeWidth=2;resizeParent=0;resizeLast=1;shadow=0;dashed=0;align=center;arcSize=4;whiteSpace=wrap;html=1;fillColor=#dae8fc;strokeColor=#6c8ebf;" parent="1" vertex="1">
          <mxGeometry x="80" y="160" width="170" height="140" as="geometry" />
        </mxCell>
        <mxCell id="4nfFPMJlw5qFci8MI3dI-29" value="&amp;gt;Format&lt;br&gt;&amp;gt;Publishing house&lt;br&gt;&amp;gt;Date of publishing of edition&lt;br&gt;&amp;gt;Language&lt;br&gt;&amp;gt;Edition number" style="align=left;strokeColor=none;fillColor=none;spacingLeft=4;fontSize=12;verticalAlign=top;resizable=0;rotatable=0;part=1;html=1;" parent="4nfFPMJlw5qFci8MI3dI-28" vertex="1">
          <mxGeometry y="50" width="170" height="90" as="geometry" />
        </mxCell>
        <mxCell id="4nfFPMJlw5qFci8MI3dI-30" value="Quotes" style="swimlane;childLayout=stackLayout;horizontal=1;startSize=50;horizontalStack=0;rounded=1;fontSize=14;fontStyle=0;strokeWidth=2;resizeParent=0;resizeLast=1;shadow=0;dashed=0;align=center;arcSize=4;whiteSpace=wrap;html=1;fillColor=#dae8fc;strokeColor=#6c8ebf;" parent="1" vertex="1">
          <mxGeometry x="760" y="310" width="110" height="105" as="geometry" />
        </mxCell>
        <mxCell id="4nfFPMJlw5qFci8MI3dI-31" value="&amp;gt;Name of book&lt;br&gt;&amp;gt;name of author&lt;br&gt;&amp;gt;number of likes" style="align=left;strokeColor=none;fillColor=none;spacingLeft=4;fontSize=12;verticalAlign=top;resizable=0;rotatable=0;part=1;html=1;" parent="4nfFPMJlw5qFci8MI3dI-30" vertex="1">
          <mxGeometry y="50" width="110" height="55" as="geometry" />
        </mxCell>
        <mxCell id="4nfFPMJlw5qFci8MI3dI-32" value="Discussion" style="swimlane;childLayout=stackLayout;horizontal=1;startSize=50;horizontalStack=0;rounded=1;fontSize=14;fontStyle=0;strokeWidth=2;resizeParent=0;resizeLast=1;shadow=0;dashed=0;align=center;arcSize=4;whiteSpace=wrap;html=1;fillColor=#dae8fc;strokeColor=#6c8ebf;" parent="1" vertex="1">
          <mxGeometry x="650" y="670" width="160" height="140" as="geometry" />
        </mxCell>
        <mxCell id="4nfFPMJlw5qFci8MI3dI-33" value="&amp;gt;Topic&lt;br&gt;&amp;gt;Initiator&#39;s name&lt;br&gt;&amp;gt;Number of views&lt;br&gt;&amp;gt;Last activity&lt;br&gt;&amp;gt;Number of posts" style="align=left;strokeColor=none;fillColor=none;spacingLeft=4;fontSize=12;verticalAlign=top;resizable=0;rotatable=0;part=1;html=1;" parent="4nfFPMJlw5qFci8MI3dI-32" vertex="1">
          <mxGeometry y="50" width="160" height="90" as="geometry" />
        </mxCell>
        <mxCell id="4nfFPMJlw5qFci8MI3dI-34" value="Author Questions" style="swimlane;childLayout=stackLayout;horizontal=1;startSize=50;horizontalStack=0;rounded=1;fontSize=14;fontStyle=0;strokeWidth=2;resizeParent=0;resizeLast=1;shadow=0;dashed=0;align=center;arcSize=4;whiteSpace=wrap;html=1;fillColor=#dae8fc;strokeColor=#6c8ebf;" parent="1" vertex="1">
          <mxGeometry x="1000" y="450" width="160" height="110" as="geometry" />
        </mxCell>
        <mxCell id="4nfFPMJlw5qFci8MI3dI-35" value="&amp;gt;Likes&lt;br&gt;&amp;gt;Number of answers&lt;br&gt;&amp;gt;Timestamp" style="align=left;strokeColor=none;fillColor=none;spacingLeft=4;fontSize=12;verticalAlign=top;resizable=0;rotatable=0;part=1;html=1;" parent="4nfFPMJlw5qFci8MI3dI-34" vertex="1">
          <mxGeometry y="50" width="160" height="60" as="geometry" />
        </mxCell>
        <mxCell id="4nfFPMJlw5qFci8MI3dI-36" value="List" style="swimlane;childLayout=stackLayout;horizontal=1;startSize=50;horizontalStack=0;rounded=1;fontSize=14;fontStyle=0;strokeWidth=2;resizeParent=0;resizeLast=1;shadow=0;dashed=0;align=center;arcSize=4;whiteSpace=wrap;html=1;fillColor=#dae8fc;strokeColor=#6c8ebf;" parent="1" vertex="1">
          <mxGeometry x="910" y="1000" width="160" height="120" as="geometry" />
        </mxCell>
        <mxCell id="4nfFPMJlw5qFci8MI3dI-37" value="&amp;gt;Name&lt;br&gt;&amp;gt;Votes&lt;br&gt;&amp;gt;Number of books&lt;br&gt;&amp;gt;Description&lt;br&gt;" style="align=left;strokeColor=none;fillColor=none;spacingLeft=4;fontSize=12;verticalAlign=top;resizable=0;rotatable=0;part=1;html=1;" parent="4nfFPMJlw5qFci8MI3dI-36" vertex="1">
          <mxGeometry y="50" width="160" height="70" as="geometry" />
        </mxCell>
        <mxCell id="4nfFPMJlw5qFci8MI3dI-38" value="User" style="swimlane;childLayout=stackLayout;horizontal=1;startSize=50;horizontalStack=0;rounded=1;fontSize=14;fontStyle=0;strokeWidth=2;resizeParent=0;resizeLast=1;shadow=0;dashed=0;align=center;arcSize=4;whiteSpace=wrap;html=1;fillColor=#dae8fc;strokeColor=#6c8ebf;" parent="1" vertex="1">
          <mxGeometry x="1100" y="690" width="160" height="150" as="geometry" />
        </mxCell>
        <mxCell id="4nfFPMJlw5qFci8MI3dI-39" value="&amp;gt;Name&lt;br&gt;&amp;gt;About&lt;br&gt;&amp;gt;Inception time&lt;br&gt;&amp;gt;Email&lt;br&gt;&amp;gt;Dob&lt;br&gt;&amp;gt;Website" style="align=left;strokeColor=none;fillColor=none;spacingLeft=4;fontSize=12;verticalAlign=top;resizable=0;rotatable=0;part=1;html=1;" parent="4nfFPMJlw5qFci8MI3dI-38" vertex="1">
          <mxGeometry y="50" width="160" height="100" as="geometry" />
        </mxCell>
        <mxCell id="AMUWhJ_4N7A-JBRG0hb9-1" value="Book shelves (read)" style="swimlane;childLayout=stackLayout;horizontal=1;startSize=50;horizontalStack=0;rounded=1;fontSize=14;fontStyle=0;strokeWidth=2;resizeParent=0;resizeLast=1;shadow=0;dashed=0;align=center;arcSize=4;whiteSpace=wrap;html=1;fillColor=#dae8fc;strokeColor=#6c8ebf;" parent="1" vertex="1">
          <mxGeometry x="380" y="880" width="160" height="80" as="geometry" />
        </mxCell>
        <mxCell id="AMUWhJ_4N7A-JBRG0hb9-2" value="&amp;gt;Number of books" style="align=left;strokeColor=none;fillColor=none;spacingLeft=4;fontSize=12;verticalAlign=top;resizable=0;rotatable=0;part=1;html=1;" parent="AMUWhJ_4N7A-JBRG0hb9-1" vertex="1">
          <mxGeometry y="50" width="160" height="30" as="geometry" />
        </mxCell>
        <mxCell id="AMUWhJ_4N7A-JBRG0hb9-3" value="Book shelves (to read)" style="swimlane;childLayout=stackLayout;horizontal=1;startSize=50;horizontalStack=0;rounded=1;fontSize=14;fontStyle=0;strokeWidth=2;resizeParent=0;resizeLast=1;shadow=0;dashed=0;align=center;arcSize=4;whiteSpace=wrap;html=1;fillColor=#dae8fc;strokeColor=#6c8ebf;" parent="1" vertex="1">
          <mxGeometry x="380" y="1089" width="160" height="80" as="geometry" />
        </mxCell>
        <mxCell id="AMUWhJ_4N7A-JBRG0hb9-4" value="&amp;gt;Number of books" style="align=left;strokeColor=none;fillColor=none;spacingLeft=4;fontSize=12;verticalAlign=top;resizable=0;rotatable=0;part=1;html=1;" parent="AMUWhJ_4N7A-JBRG0hb9-3" vertex="1">
          <mxGeometry y="50" width="160" height="30" as="geometry" />
        </mxCell>
        <mxCell id="AMUWhJ_4N7A-JBRG0hb9-5" value="Book shelves &lt;br&gt;(currently reading)" style="swimlane;childLayout=stackLayout;horizontal=1;startSize=50;horizontalStack=0;rounded=1;fontSize=14;fontStyle=0;strokeWidth=2;resizeParent=0;resizeLast=1;shadow=0;dashed=0;align=center;arcSize=4;whiteSpace=wrap;html=1;fillColor=#dae8fc;strokeColor=#6c8ebf;" parent="1" vertex="1">
          <mxGeometry x="380" y="989" width="160" height="80" as="geometry" />
        </mxCell>
        <mxCell id="AMUWhJ_4N7A-JBRG0hb9-6" value="&amp;gt;Number of books" style="align=left;strokeColor=none;fillColor=none;spacingLeft=4;fontSize=12;verticalAlign=top;resizable=0;rotatable=0;part=1;html=1;" parent="AMUWhJ_4N7A-JBRG0hb9-5" vertex="1">
          <mxGeometry y="50" width="160" height="30" as="geometry" />
        </mxCell>
        <mxCell id="AMUWhJ_4N7A-JBRG0hb9-8" value="Blog&lt;span style=&quot;white-space: pre;&quot;&gt;&#x9;&lt;/span&gt;" style="swimlane;childLayout=stackLayout;horizontal=1;startSize=50;horizontalStack=0;rounded=1;fontSize=14;fontStyle=0;strokeWidth=2;resizeParent=0;resizeLast=1;shadow=0;dashed=0;align=center;arcSize=4;whiteSpace=wrap;html=1;fillColor=#dae8fc;strokeColor=#6c8ebf;" parent="1" vertex="1">
          <mxGeometry x="1340" y="240" width="160" height="110" as="geometry" />
        </mxCell>
        <mxCell id="AMUWhJ_4N7A-JBRG0hb9-9" value="&amp;gt;Title&lt;br&gt;&amp;gt;timestamp&lt;br&gt;&amp;gt;Number of likes" style="align=left;strokeColor=none;fillColor=none;spacingLeft=4;fontSize=12;verticalAlign=top;resizable=0;rotatable=0;part=1;html=1;" parent="AMUWhJ_4N7A-JBRG0hb9-8" vertex="1">
          <mxGeometry y="50" width="160" height="60" as="geometry" />
        </mxCell>
        <mxCell id="AMUWhJ_4N7A-JBRG0hb9-10" value="Videos" style="swimlane;childLayout=stackLayout;horizontal=1;startSize=50;horizontalStack=0;rounded=1;fontSize=14;fontStyle=0;strokeWidth=2;resizeParent=0;resizeLast=1;shadow=0;dashed=0;align=center;arcSize=4;whiteSpace=wrap;html=1;fillColor=#dae8fc;strokeColor=#6c8ebf;" parent="1" vertex="1">
          <mxGeometry x="1340" y="90" width="160" height="130" as="geometry" />
        </mxCell>
        <mxCell id="AMUWhJ_4N7A-JBRG0hb9-11" value="&amp;gt;Title&lt;br&gt;&amp;gt;Description&lt;br&gt;&amp;gt;Number of likes&lt;br&gt;&amp;gt;Number of views&lt;br&gt;" style="align=left;strokeColor=none;fillColor=none;spacingLeft=4;fontSize=12;verticalAlign=top;resizable=0;rotatable=0;part=1;html=1;" parent="AMUWhJ_4N7A-JBRG0hb9-10" vertex="1">
          <mxGeometry y="50" width="160" height="80" as="geometry" />
        </mxCell>
        <mxCell id="AMUWhJ_4N7A-JBRG0hb9-15" value="" style="edgeStyle=entityRelationEdgeStyle;fontSize=12;html=1;endArrow=ERoneToMany;startArrow=ERoneToMany;rounded=0;endSize=10;startSize=10;entryX=0;entryY=0.25;entryDx=0;entryDy=0;" parent="1" target="4nfFPMJlw5qFci8MI3dI-12" edge="1">
          <mxGeometry width="100" height="100" relative="1" as="geometry">
            <mxPoint x="640" y="235" as="sourcePoint" />
            <mxPoint x="730" y="160" as="targetPoint" />
            <Array as="points">
              <mxPoint x="550" y="160" />
              <mxPoint x="680" y="180" />
            </Array>
          </mxGeometry>
        </mxCell>
        <mxCell id="AMUWhJ_4N7A-JBRG0hb9-16" value="" style="edgeStyle=orthogonalEdgeStyle;fontSize=12;html=1;endArrow=ERzeroToMany;startArrow=ERoneToMany;rounded=0;endSize=10;startSize=10;endFill=0;entryX=1;entryY=0.75;entryDx=0;entryDy=0;" parent="1" target="4nfFPMJlw5qFci8MI3dI-23" edge="1">
          <mxGeometry width="100" height="100" relative="1" as="geometry">
            <mxPoint x="480" y="250" as="sourcePoint" />
            <mxPoint x="300" y="400" as="targetPoint" />
            <Array as="points">
              <mxPoint x="480" y="250" />
              <mxPoint x="270" y="250" />
              <mxPoint x="270" y="410" />
            </Array>
          </mxGeometry>
        </mxCell>
        <mxCell id="AMUWhJ_4N7A-JBRG0hb9-23" value="" style="fontSize=12;html=1;endArrow=ERoneToMany;endFill=0;startArrow=ERoneToMany;rounded=0;exitX=0.565;exitY=1.089;exitDx=0;exitDy=0;exitPerimeter=0;endSize=10;startSize=10;startFill=0;" parent="1" source="4nfFPMJlw5qFci8MI3dI-20" edge="1">
          <mxGeometry width="100" height="100" relative="1" as="geometry">
            <mxPoint x="500.64000000000004" y="34.63000000000002" as="sourcePoint" />
            <mxPoint x="480" y="150" as="targetPoint" />
            <Array as="points" />
          </mxGeometry>
        </mxCell>
        <mxCell id="AMUWhJ_4N7A-JBRG0hb9-25" value="" style="fontSize=12;html=1;endArrow=ERoneToMany;endFill=0;startArrow=ERoneToMany;rounded=0;endSize=10;startSize=10;edgeStyle=orthogonalEdgeStyle;startFill=0;exitX=1;exitY=0.25;exitDx=0;exitDy=0;" parent="1" source="4nfFPMJlw5qFci8MI3dI-20" edge="1">
          <mxGeometry width="100" height="100" relative="1" as="geometry">
            <mxPoint x="660" y="-90" as="sourcePoint" />
            <mxPoint x="880" y="203" as="targetPoint" />
            <Array as="points">
              <mxPoint x="680" y="-93" />
              <mxPoint x="680" y="203" />
            </Array>
          </mxGeometry>
        </mxCell>
        <mxCell id="AMUWhJ_4N7A-JBRG0hb9-31" value="" style="fontSize=12;html=1;endArrow=ERzeroToMany;startArrow=ERoneToMany;rounded=0;endFill=0;startFill=0;exitX=0.44;exitY=-0.005;exitDx=0;exitDy=0;exitPerimeter=0;endSize=10;startSize=10;entryX=0.812;entryY=1.01;entryDx=0;entryDy=0;entryPerimeter=0;" parent="1" source="4nfFPMJlw5qFci8MI3dI-5" target="4nfFPMJlw5qFci8MI3dI-22" edge="1">
          <mxGeometry width="100" height="100" relative="1" as="geometry">
            <mxPoint x="540" y="130" as="sourcePoint" />
            <mxPoint x="580" y="-170" as="targetPoint" />
          </mxGeometry>
        </mxCell>
        <mxCell id="AMUWhJ_4N7A-JBRG0hb9-33" value="" style="edgeStyle=elbowEdgeStyle;fontSize=12;html=1;endArrow=ERzeroToMany;endFill=1;startArrow=ERoneToMany;rounded=0;exitX=0;exitY=0.067;exitDx=0;exitDy=0;exitPerimeter=0;endSize=10;startSize=10;startFill=0;" parent="1" source="4nfFPMJlw5qFci8MI3dI-11" edge="1">
          <mxGeometry width="100" height="100" relative="1" as="geometry">
            <mxPoint x="770" y="130" as="sourcePoint" />
            <mxPoint x="580" y="-220" as="targetPoint" />
          </mxGeometry>
        </mxCell>
        <mxCell id="AMUWhJ_4N7A-JBRG0hb9-34" value="" style="edgeStyle=entityRelationEdgeStyle;fontSize=12;html=1;endArrow=ERzeroToMany;startArrow=ERmandOne;rounded=0;entryX=0;entryY=0.096;entryDx=0;entryDy=0;entryPerimeter=0;endSize=10;startSize=10;endFill=0;startFill=0;" parent="1" target="AMUWhJ_4N7A-JBRG0hb9-10" edge="1">
          <mxGeometry width="100" height="100" relative="1" as="geometry">
            <mxPoint x="1040" y="174" as="sourcePoint" />
            <mxPoint x="870" y="30" as="targetPoint" />
            <Array as="points">
              <mxPoint x="1100" y="190" />
            </Array>
          </mxGeometry>
        </mxCell>
        <mxCell id="AMUWhJ_4N7A-JBRG0hb9-35" value="" style="edgeStyle=entityRelationEdgeStyle;fontSize=12;html=1;endArrow=ERzeroToMany;startArrow=ERmandOne;rounded=0;endSize=10;startSize=10;endFill=0;startFill=0;" parent="1" source="4nfFPMJlw5qFci8MI3dI-12" target="AMUWhJ_4N7A-JBRG0hb9-8" edge="1">
          <mxGeometry width="100" height="100" relative="1" as="geometry">
            <mxPoint x="1080" y="390" as="sourcePoint" />
            <mxPoint x="1220" y="308" as="targetPoint" />
            <Array as="points">
              <mxPoint x="1140" y="406" />
            </Array>
          </mxGeometry>
        </mxCell>
        <mxCell id="AMUWhJ_4N7A-JBRG0hb9-36" value="" style="edgeStyle=orthogonalEdgeStyle;fontSize=12;html=1;endArrow=ERoneToMany;endFill=0;rounded=0;exitX=1;exitY=0.125;exitDx=0;exitDy=0;exitPerimeter=0;startArrow=ERzeroToMany;startFill=0;endSize=10;startSize=10;entryX=0;entryY=0.25;entryDx=0;entryDy=0;" parent="1" source="4nfFPMJlw5qFci8MI3dI-25" target="4nfFPMJlw5qFci8MI3dI-5" edge="1">
          <mxGeometry width="100" height="100" relative="1" as="geometry">
            <mxPoint x="610" y="410" as="sourcePoint" />
            <mxPoint x="460" y="188" as="targetPoint" />
            <Array as="points">
              <mxPoint x="310" y="60" />
              <mxPoint x="310" y="190" />
            </Array>
          </mxGeometry>
        </mxCell>
        <mxCell id="AMUWhJ_4N7A-JBRG0hb9-39" value="" style="edgeStyle=entityRelationEdgeStyle;fontSize=12;html=1;endArrow=ERone;endFill=0;rounded=0;startArrow=ERoneToMany;startFill=0;jumpSize=6;startSize=10;endSize=10;entryX=0;entryY=0.182;entryDx=0;entryDy=0;entryPerimeter=0;" parent="1" target="4nfFPMJlw5qFci8MI3dI-6" edge="1">
          <mxGeometry width="100" height="100" relative="1" as="geometry">
            <mxPoint x="250" y="220" as="sourcePoint" />
            <mxPoint x="460" y="240" as="targetPoint" />
          </mxGeometry>
        </mxCell>
        <mxCell id="AMUWhJ_4N7A-JBRG0hb9-43" value="" style="edgeStyle=orthogonalEdgeStyle;fontSize=12;html=1;endArrow=ERone;startArrow=ERoneToMany;rounded=0;exitX=0.934;exitY=0.005;exitDx=0;exitDy=0;exitPerimeter=0;endSize=10;startSize=10;endFill=0;startFill=0;entryX=0;entryY=0.643;entryDx=0;entryDy=0;entryPerimeter=0;" parent="1" source="4nfFPMJlw5qFci8MI3dI-17" target="4nfFPMJlw5qFci8MI3dI-6" edge="1">
          <mxGeometry width="100" height="100" relative="1" as="geometry">
            <mxPoint x="280" y="451" as="sourcePoint" />
            <mxPoint x="450" y="270" as="targetPoint" />
            <Array as="points">
              <mxPoint x="289" y="480" />
              <mxPoint x="290" y="480" />
              <mxPoint x="290" y="271" />
            </Array>
          </mxGeometry>
        </mxCell>
        <mxCell id="AMUWhJ_4N7A-JBRG0hb9-46" value="" style="edgeStyle=orthogonalEdgeStyle;fontSize=12;html=1;endArrow=ERone;startArrow=ERzeroToMany;rounded=0;entryX=0.438;entryY=0;entryDx=0;entryDy=0;entryPerimeter=0;startFill=0;endSize=10;startSize=10;endFill=0;exitX=1;exitY=0.75;exitDx=0;exitDy=0;" parent="1" source="4nfFPMJlw5qFci8MI3dI-18" target="4nfFPMJlw5qFci8MI3dI-38" edge="1">
          <mxGeometry width="100" height="100" relative="1" as="geometry">
            <mxPoint x="310" y="600" as="sourcePoint" />
            <mxPoint x="680" y="320" as="targetPoint" />
            <Array as="points">
              <mxPoint x="1170" y="600" />
            </Array>
          </mxGeometry>
        </mxCell>
        <mxCell id="AMUWhJ_4N7A-JBRG0hb9-47" value="" style="edgeStyle=orthogonalEdgeStyle;fontSize=12;html=1;endArrow=ERone;endFill=0;rounded=0;startArrow=ERoneToMany;startFill=0;endSize=10;startSize=10;exitX=0;exitY=0.545;exitDx=0;exitDy=0;exitPerimeter=0;" parent="1" source="4nfFPMJlw5qFci8MI3dI-31" edge="1">
          <mxGeometry width="100" height="100" relative="1" as="geometry">
            <mxPoint x="680" y="390" as="sourcePoint" />
            <mxPoint x="600" y="310" as="targetPoint" />
            <Array as="points">
              <mxPoint x="600" y="390" />
            </Array>
          </mxGeometry>
        </mxCell>
        <mxCell id="AMUWhJ_4N7A-JBRG0hb9-50" value="" style="edgeStyle=orthogonalEdgeStyle;fontSize=12;html=1;endArrow=ERone;endFill=0;rounded=0;startArrow=ERoneToMany;startFill=0;endSize=10;startSize=10;exitX=1.003;exitY=0.63;exitDx=0;exitDy=0;exitPerimeter=0;" parent="1" source="4nfFPMJlw5qFci8MI3dI-31" edge="1">
          <mxGeometry width="100" height="100" relative="1" as="geometry">
            <mxPoint x="860" y="394" as="sourcePoint" />
            <mxPoint x="900" y="310" as="targetPoint" />
            <Array as="points">
              <mxPoint x="900" y="395" />
            </Array>
          </mxGeometry>
        </mxCell>
        <mxCell id="AMUWhJ_4N7A-JBRG0hb9-51" value="Book Questions" style="swimlane;childLayout=stackLayout;horizontal=1;startSize=50;horizontalStack=0;rounded=1;fontSize=14;fontStyle=0;strokeWidth=2;resizeParent=0;resizeLast=1;shadow=0;dashed=0;align=center;arcSize=4;whiteSpace=wrap;html=1;fillColor=#dae8fc;strokeColor=#6c8ebf;" parent="1" vertex="1">
          <mxGeometry x="570" y="450" width="220" height="110" as="geometry" />
        </mxCell>
        <mxCell id="AMUWhJ_4N7A-JBRG0hb9-52" value="&amp;gt;Likes&lt;br&gt;&amp;gt;Number of answers&lt;br&gt;&amp;gt;Timestamp" style="align=left;strokeColor=none;fillColor=none;spacingLeft=4;fontSize=12;verticalAlign=top;resizable=0;rotatable=0;part=1;html=1;" parent="AMUWhJ_4N7A-JBRG0hb9-51" vertex="1">
          <mxGeometry y="50" width="220" height="60" as="geometry" />
        </mxCell>
        <mxCell id="AMUWhJ_4N7A-JBRG0hb9-55" value="" style="edgeStyle=orthogonalEdgeStyle;fontSize=12;html=1;endArrow=ERone;rounded=0;endFill=0;startArrow=ERzeroToMany;startFill=0;endSize=10;startSize=10;exitX=0.063;exitY=0;exitDx=0;exitDy=0;exitPerimeter=0;entryX=0.625;entryY=1;entryDx=0;entryDy=0;entryPerimeter=0;" parent="1" source="AMUWhJ_4N7A-JBRG0hb9-51" target="4nfFPMJlw5qFci8MI3dI-6" edge="1">
          <mxGeometry width="100" height="100" relative="1" as="geometry">
            <mxPoint x="560" y="440" as="sourcePoint" />
            <mxPoint x="590" y="320" as="targetPoint" />
            <Array as="points" />
          </mxGeometry>
        </mxCell>
        <mxCell id="AMUWhJ_4N7A-JBRG0hb9-56" value="" style="edgeStyle=orthogonalEdgeStyle;fontSize=12;html=1;endArrow=ERone;rounded=0;exitX=0.313;exitY=0;exitDx=0;exitDy=0;endFill=0;startArrow=ERzeroToMany;startFill=0;endSize=10;startSize=10;exitPerimeter=0;" parent="1" source="4nfFPMJlw5qFci8MI3dI-34" target="4nfFPMJlw5qFci8MI3dI-12" edge="1">
          <mxGeometry width="100" height="100" relative="1" as="geometry">
            <mxPoint x="1020" y="370" as="sourcePoint" />
            <mxPoint x="1020" y="320" as="targetPoint" />
            <Array as="points" />
          </mxGeometry>
        </mxCell>
        <mxCell id="AMUWhJ_4N7A-JBRG0hb9-57" value="" style="edgeStyle=orthogonalEdgeStyle;fontSize=12;html=1;endArrow=ERone;rounded=0;entryX=0.935;entryY=0.009;entryDx=0;entryDy=0;endFill=0;startArrow=ERzeroToMany;startFill=0;endSize=10;startSize=10;entryPerimeter=0;exitX=1;exitY=0;exitDx=0;exitDy=0;" parent="1" source="4nfFPMJlw5qFci8MI3dI-35" target="4nfFPMJlw5qFci8MI3dI-38" edge="1">
          <mxGeometry width="100" height="100" relative="1" as="geometry">
            <mxPoint x="1170" y="500" as="sourcePoint" />
            <mxPoint x="1200" y="410" as="targetPoint" />
            <Array as="points">
              <mxPoint x="1250" y="500" />
            </Array>
          </mxGeometry>
        </mxCell>
        <mxCell id="AMUWhJ_4N7A-JBRG0hb9-59" value="" style="fontSize=12;html=1;endArrow=ERone;rounded=0;endFill=0;startArrow=ERzeroToMany;startFill=0;endSize=10;startSize=10;entryX=-0.022;entryY=0.111;entryDx=0;entryDy=0;entryPerimeter=0;exitX=1;exitY=1;exitDx=0;exitDy=0;" parent="1" source="AMUWhJ_4N7A-JBRG0hb9-52" target="4nfFPMJlw5qFci8MI3dI-38" edge="1">
          <mxGeometry width="100" height="100" relative="1" as="geometry">
            <mxPoint x="730" y="510" as="sourcePoint" />
            <mxPoint x="930" y="670" as="targetPoint" />
          </mxGeometry>
        </mxCell>
        <mxCell id="AMUWhJ_4N7A-JBRG0hb9-61" value="" style="edgeStyle=entityRelationEdgeStyle;fontSize=12;html=1;endArrow=ERoneToMany;endFill=0;rounded=0;exitX=0.999;exitY=0.682;exitDx=0;exitDy=0;exitPerimeter=0;endSize=10;startSize=10;entryX=0.006;entryY=0.857;entryDx=0;entryDy=0;entryPerimeter=0;startArrow=ERzeroToMany;startFill=0;" parent="1" source="4nfFPMJlw5qFci8MI3dI-33" target="4nfFPMJlw5qFci8MI3dI-39" edge="1">
          <mxGeometry width="100" height="100" relative="1" as="geometry">
            <mxPoint x="730" y="540" as="sourcePoint" />
            <mxPoint x="1090" y="830" as="targetPoint" />
          </mxGeometry>
        </mxCell>
        <mxCell id="AMUWhJ_4N7A-JBRG0hb9-62" value="" style="edgeStyle=orthogonalEdgeStyle;fontSize=12;html=1;endArrow=ERzeroToMany;startArrow=ERzeroToMany;rounded=0;entryX=0.5;entryY=1;entryDx=0;entryDy=0;exitX=0.25;exitY=0;exitDx=0;exitDy=0;endSize=10;startSize=10;startFill=0;endFill=0;" parent="1" source="4nfFPMJlw5qFci8MI3dI-32" target="4nfFPMJlw5qFci8MI3dI-6" edge="1">
          <mxGeometry width="100" height="100" relative="1" as="geometry">
            <mxPoint x="420" y="500" as="sourcePoint" />
            <mxPoint x="560" y="340" as="targetPoint" />
            <Array as="points">
              <mxPoint x="690" y="580" />
              <mxPoint x="560" y="580" />
            </Array>
          </mxGeometry>
        </mxCell>
        <mxCell id="AMUWhJ_4N7A-JBRG0hb9-64" value="" style="fontSize=12;html=1;endArrow=ERzeroToMany;endFill=1;rounded=0;entryX=0.354;entryY=0.993;entryDx=0;entryDy=0;entryPerimeter=0;endSize=10;startSize=10;startArrow=ERzeroToMany;startFill=0;exitX=0.007;exitY=0.059;exitDx=0;exitDy=0;exitPerimeter=0;" parent="1" source="4nfFPMJlw5qFci8MI3dI-36" target="4nfFPMJlw5qFci8MI3dI-6" edge="1">
          <mxGeometry width="100" height="100" relative="1" as="geometry">
            <mxPoint x="570" y="880" as="sourcePoint" />
            <mxPoint x="500" y="490" as="targetPoint" />
            <Array as="points">
              <mxPoint x="540" y="790" />
            </Array>
          </mxGeometry>
        </mxCell>
        <mxCell id="AMUWhJ_4N7A-JBRG0hb9-65" value="" style="fontSize=12;html=1;endArrow=ERzeroToMany;endFill=1;rounded=0;entryX=0.202;entryY=0.997;entryDx=0;entryDy=0;entryPerimeter=0;endSize=10;startSize=10;startArrow=ERzeroToMany;startFill=0;exitX=0.818;exitY=-0.004;exitDx=0;exitDy=0;exitPerimeter=0;" parent="1" source="AMUWhJ_4N7A-JBRG0hb9-1" target="4nfFPMJlw5qFci8MI3dI-6" edge="1">
          <mxGeometry width="100" height="100" relative="1" as="geometry">
            <mxPoint x="350" y="1040" as="sourcePoint" />
            <mxPoint x="436" y="150" as="targetPoint" />
            <Array as="points">
              <mxPoint x="510" y="840" />
              <mxPoint x="510" y="800" />
              <mxPoint x="510" y="710" />
              <mxPoint x="510" y="470" />
            </Array>
          </mxGeometry>
        </mxCell>
        <mxCell id="AMUWhJ_4N7A-JBRG0hb9-68" value="" style="fontSize=12;html=1;endArrow=ERzeroToMany;endFill=1;rounded=0;endSize=10;startSize=10;startArrow=ERzeroToMany;startFill=0;exitX=0;exitY=0.5;exitDx=0;exitDy=0;entryX=0.081;entryY=1.009;entryDx=0;entryDy=0;entryPerimeter=0;" parent="1" source="AMUWhJ_4N7A-JBRG0hb9-5" target="4nfFPMJlw5qFci8MI3dI-6" edge="1">
          <mxGeometry width="100" height="100" relative="1" as="geometry">
            <mxPoint x="220" y="920" as="sourcePoint" />
            <mxPoint x="480" y="330" as="targetPoint" />
            <Array as="points">
              <mxPoint x="350" y="1030" />
              <mxPoint x="350" y="900" />
              <mxPoint x="493" y="460" />
            </Array>
          </mxGeometry>
        </mxCell>
        <mxCell id="AMUWhJ_4N7A-JBRG0hb9-69" value="" style="fontSize=12;html=1;endArrow=ERzeroToMany;endFill=1;rounded=0;endSize=10;startSize=10;startArrow=ERzeroToMany;startFill=0;entryX=0;entryY=0.909;entryDx=0;entryDy=0;entryPerimeter=0;exitX=0;exitY=0.5;exitDx=0;exitDy=0;" parent="1" source="AMUWhJ_4N7A-JBRG0hb9-3" target="4nfFPMJlw5qFci8MI3dI-6" edge="1">
          <mxGeometry width="100" height="100" relative="1" as="geometry">
            <mxPoint x="340" y="1150" as="sourcePoint" />
            <mxPoint x="410" y="280" as="targetPoint" />
            <Array as="points">
              <mxPoint x="310" y="1130" />
              <mxPoint x="310" y="890" />
              <mxPoint x="440" y="490" />
              <mxPoint x="440" y="300" />
            </Array>
          </mxGeometry>
        </mxCell>
        <mxCell id="AMUWhJ_4N7A-JBRG0hb9-70" value="" style="fontSize=12;html=1;endArrow=ERone;endFill=0;rounded=0;entryX=0.914;entryY=1.016;entryDx=0;entryDy=0;entryPerimeter=0;exitX=1;exitY=0.25;exitDx=0;exitDy=0;endSize=10;startSize=10;startArrow=ERone;startFill=0;" parent="1" source="AMUWhJ_4N7A-JBRG0hb9-4" target="4nfFPMJlw5qFci8MI3dI-39" edge="1">
          <mxGeometry width="100" height="100" relative="1" as="geometry">
            <mxPoint x="590" y="1130" as="sourcePoint" />
            <mxPoint x="890" y="680" as="targetPoint" />
            <Array as="points">
              <mxPoint x="590" y="1147" />
              <mxPoint x="590" y="1270" />
              <mxPoint x="1246" y="1270" />
            </Array>
          </mxGeometry>
        </mxCell>
        <mxCell id="AMUWhJ_4N7A-JBRG0hb9-74" value="" style="fontSize=12;html=1;endArrow=ERone;endFill=0;rounded=0;entryX=0.724;entryY=1.025;entryDx=0;entryDy=0;entryPerimeter=0;exitX=1;exitY=0;exitDx=0;exitDy=0;endSize=10;startSize=10;startArrow=ERone;startFill=0;" parent="1" source="AMUWhJ_4N7A-JBRG0hb9-6" target="4nfFPMJlw5qFci8MI3dI-39" edge="1">
          <mxGeometry width="100" height="100" relative="1" as="geometry">
            <mxPoint x="510" y="1145" as="sourcePoint" />
            <mxPoint x="1216" y="840" as="targetPoint" />
            <Array as="points">
              <mxPoint x="610" y="1039" />
              <mxPoint x="610" y="1230" />
              <mxPoint x="1216" y="1230" />
            </Array>
          </mxGeometry>
        </mxCell>
        <mxCell id="AMUWhJ_4N7A-JBRG0hb9-76" value="" style="fontSize=12;html=1;endArrow=ERone;endFill=0;rounded=0;exitX=1;exitY=0.5;exitDx=0;exitDy=0;endSize=10;startSize=10;startArrow=ERone;startFill=0;entryX=0.529;entryY=1.008;entryDx=0;entryDy=0;entryPerimeter=0;" parent="1" source="AMUWhJ_4N7A-JBRG0hb9-1" target="4nfFPMJlw5qFci8MI3dI-39" edge="1">
          <mxGeometry width="100" height="100" relative="1" as="geometry">
            <mxPoint x="480" y="1085" as="sourcePoint" />
            <mxPoint x="1186" y="850" as="targetPoint" />
            <Array as="points">
              <mxPoint x="640" y="920" />
              <mxPoint x="640" y="1190" />
              <mxPoint x="1186" y="1190" />
            </Array>
          </mxGeometry>
        </mxCell>
        <mxCell id="AMUWhJ_4N7A-JBRG0hb9-77" value="" style="edgeStyle=orthogonalEdgeStyle;fontSize=12;html=1;endArrow=ERone;endFill=0;rounded=0;entryX=0.384;entryY=1.018;entryDx=0;entryDy=0;entryPerimeter=0;endSize=10;startSize=10;startArrow=ERzeroToMany;startFill=0;" parent="1" target="4nfFPMJlw5qFci8MI3dI-39" edge="1">
          <mxGeometry width="100" height="100" relative="1" as="geometry">
            <mxPoint x="1070" y="1040" as="sourcePoint" />
            <mxPoint x="1170" y="940" as="targetPoint" />
          </mxGeometry>
        </mxCell>
        <mxCell id="AMUWhJ_4N7A-JBRG0hb9-78" value="Profile picture" style="swimlane;childLayout=stackLayout;horizontal=1;startSize=50;horizontalStack=0;rounded=1;fontSize=14;fontStyle=0;strokeWidth=2;resizeParent=0;resizeLast=1;shadow=0;dashed=0;align=center;arcSize=4;whiteSpace=wrap;html=1;fillColor=#dae8fc;strokeColor=#6c8ebf;" parent="1" vertex="1">
          <mxGeometry x="1340" y="390" width="160" height="140" as="geometry" />
        </mxCell>
        <mxCell id="AMUWhJ_4N7A-JBRG0hb9-79" value="&amp;gt;Title&lt;br&gt;&amp;gt;Description&lt;br&gt;&amp;gt;Tags&lt;br&gt;&amp;gt;Number of likes&lt;br&gt;&amp;gt;Number of comments" style="align=left;strokeColor=none;fillColor=none;spacingLeft=4;fontSize=12;verticalAlign=top;resizable=0;rotatable=0;part=1;html=1;" parent="AMUWhJ_4N7A-JBRG0hb9-78" vertex="1">
          <mxGeometry y="50" width="160" height="90" as="geometry" />
        </mxCell>
        <mxCell id="AMUWhJ_4N7A-JBRG0hb9-80" value="" style="edgeStyle=orthogonalEdgeStyle;fontSize=12;html=1;endArrow=ERone;endFill=0;startArrow=ERone;rounded=0;exitX=1;exitY=0.25;exitDx=0;exitDy=0;entryX=0.5;entryY=1;entryDx=0;entryDy=0;endSize=10;startSize=10;startFill=0;" parent="1" source="4nfFPMJlw5qFci8MI3dI-38" target="AMUWhJ_4N7A-JBRG0hb9-79" edge="1">
          <mxGeometry width="100" height="100" relative="1" as="geometry">
            <mxPoint x="1370" y="717.5" as="sourcePoint" />
            <mxPoint x="1470" y="617.5" as="targetPoint" />
          </mxGeometry>
        </mxCell>
        <mxCell id="AMUWhJ_4N7A-JBRG0hb9-81" value="" style="fontSize=12;html=1;endArrow=ERone;endFill=0;startArrow=ERone;rounded=0;endSize=10;startSize=10;startFill=0;exitX=0;exitY=0.25;exitDx=0;exitDy=0;entryX=1;entryY=1;entryDx=0;entryDy=0;" parent="1" source="AMUWhJ_4N7A-JBRG0hb9-78" target="4nfFPMJlw5qFci8MI3dI-12" edge="1">
          <mxGeometry width="100" height="100" relative="1" as="geometry">
            <mxPoint x="1300" y="450" as="sourcePoint" />
            <mxPoint x="1000" y="320" as="targetPoint" />
          </mxGeometry>
        </mxCell>
        <mxCell id="AMUWhJ_4N7A-JBRG0hb9-83" value="Comments" style="swimlane;childLayout=stackLayout;horizontal=1;startSize=50;horizontalStack=0;rounded=1;fontSize=14;fontStyle=0;strokeWidth=2;resizeParent=0;resizeLast=1;shadow=0;dashed=0;align=center;arcSize=4;whiteSpace=wrap;html=1;fillColor=#dae8fc;strokeColor=#6c8ebf;" parent="1" vertex="1">
          <mxGeometry x="1241" y="-220" width="160" height="80" as="geometry" />
        </mxCell>
        <mxCell id="AMUWhJ_4N7A-JBRG0hb9-84" value="&amp;gt;Timestamps" style="align=left;strokeColor=none;fillColor=none;spacingLeft=4;fontSize=12;verticalAlign=top;resizable=0;rotatable=0;part=1;html=1;" parent="AMUWhJ_4N7A-JBRG0hb9-83" vertex="1">
          <mxGeometry y="50" width="160" height="30" as="geometry" />
        </mxCell>
        <mxCell id="AMUWhJ_4N7A-JBRG0hb9-85" value="Author Answers" style="swimlane;childLayout=stackLayout;horizontal=1;startSize=50;horizontalStack=0;rounded=1;fontSize=14;fontStyle=0;strokeWidth=2;resizeParent=0;resizeLast=1;shadow=0;dashed=0;align=center;arcSize=4;whiteSpace=wrap;html=1;fillColor=#dae8fc;strokeColor=#6c8ebf;" parent="1" vertex="1">
          <mxGeometry x="870" y="-110" width="160" height="120" as="geometry" />
        </mxCell>
        <mxCell id="AMUWhJ_4N7A-JBRG0hb9-86" value="&amp;gt;Timestamp&lt;br&gt;&amp;gt;Number of likes&lt;br&gt;&amp;gt;Number of comments" style="align=left;strokeColor=none;fillColor=none;spacingLeft=4;fontSize=12;verticalAlign=top;resizable=0;rotatable=0;part=1;html=1;" parent="AMUWhJ_4N7A-JBRG0hb9-85" vertex="1">
          <mxGeometry y="50" width="160" height="70" as="geometry" />
        </mxCell>
        <mxCell id="AMUWhJ_4N7A-JBRG0hb9-88" value="" style="edgeStyle=orthogonalEdgeStyle;fontSize=12;html=1;endArrow=ERzeroToMany;startArrow=ERone;rounded=0;exitX=0.563;exitY=0;exitDx=0;exitDy=0;exitPerimeter=0;startSize=10;endSize=10;startFill=0;endFill=0;" parent="1" source="4nfFPMJlw5qFci8MI3dI-11" target="AMUWhJ_4N7A-JBRG0hb9-86" edge="1">
          <mxGeometry width="100" height="100" relative="1" as="geometry">
            <mxPoint x="930" y="140" as="sourcePoint" />
            <mxPoint x="990" y="20" as="targetPoint" />
            <Array as="points">
              <mxPoint x="970" y="30" />
              <mxPoint x="970" y="30" />
            </Array>
          </mxGeometry>
        </mxCell>
        <mxCell id="AMUWhJ_4N7A-JBRG0hb9-91" value="User Answers" style="swimlane;childLayout=stackLayout;horizontal=1;startSize=50;horizontalStack=0;rounded=1;fontSize=14;fontStyle=0;strokeWidth=2;resizeParent=0;resizeLast=1;shadow=0;dashed=0;align=center;arcSize=4;whiteSpace=wrap;html=1;fillColor=#dae8fc;strokeColor=#6c8ebf;" parent="1" vertex="1">
          <mxGeometry x="870" y="-320" width="160" height="120" as="geometry" />
        </mxCell>
        <mxCell id="AMUWhJ_4N7A-JBRG0hb9-92" value="&amp;gt;Timestamp&lt;br&gt;&amp;gt;Number of likes&lt;br&gt;&amp;gt;Number of comments" style="align=left;strokeColor=none;fillColor=none;spacingLeft=4;fontSize=12;verticalAlign=top;resizable=0;rotatable=0;part=1;html=1;" parent="AMUWhJ_4N7A-JBRG0hb9-91" vertex="1">
          <mxGeometry y="50" width="160" height="70" as="geometry" />
        </mxCell>
        <mxCell id="AMUWhJ_4N7A-JBRG0hb9-93" value="" style="fontSize=12;html=1;endArrow=ERzeroToMany;endFill=0;rounded=0;exitX=0.75;exitY=0;exitDx=0;exitDy=0;entryX=1;entryY=0.5;entryDx=0;entryDy=0;endSize=10;startSize=10;startArrow=ERone;startFill=0;" parent="1" source="4nfFPMJlw5qFci8MI3dI-34" target="AMUWhJ_4N7A-JBRG0hb9-86" edge="1">
          <mxGeometry width="100" height="100" relative="1" as="geometry">
            <mxPoint x="1090" y="30" as="sourcePoint" />
            <mxPoint x="1120" y="-70" as="targetPoint" />
            <Array as="points">
              <mxPoint x="1120" y="-25" />
            </Array>
          </mxGeometry>
        </mxCell>
        <mxCell id="AMUWhJ_4N7A-JBRG0hb9-94" value="" style="edgeStyle=entityRelationEdgeStyle;fontSize=12;html=1;endArrow=ERzeroToMany;endFill=1;rounded=0;entryX=0;entryY=0.75;entryDx=0;entryDy=0;exitX=1;exitY=0.25;exitDx=0;exitDy=0;endSize=10;startSize=10;startArrow=ERone;startFill=0;" parent="1" source="AMUWhJ_4N7A-JBRG0hb9-85" target="AMUWhJ_4N7A-JBRG0hb9-83" edge="1">
          <mxGeometry width="100" height="100" relative="1" as="geometry">
            <mxPoint x="1090" y="-90" as="sourcePoint" />
            <mxPoint x="1190" y="-190" as="targetPoint" />
            <Array as="points">
              <mxPoint x="1230" y="-130" />
            </Array>
          </mxGeometry>
        </mxCell>
        <mxCell id="AMUWhJ_4N7A-JBRG0hb9-95" value="" style="edgeStyle=entityRelationEdgeStyle;fontSize=12;html=1;endArrow=ERzeroToMany;endFill=1;rounded=0;exitX=1;exitY=0;exitDx=0;exitDy=0;endSize=10;startSize=10;startArrow=ERone;startFill=0;" parent="1" source="AMUWhJ_4N7A-JBRG0hb9-92" edge="1">
          <mxGeometry width="100" height="100" relative="1" as="geometry">
            <mxPoint x="1080" y="-180" as="sourcePoint" />
            <mxPoint x="1240" y="-200" as="targetPoint" />
            <Array as="points">
              <mxPoint x="1280" y="-230" />
              <mxPoint x="1200" y="-210" />
            </Array>
          </mxGeometry>
        </mxCell>
        <mxCell id="AMUWhJ_4N7A-JBRG0hb9-96" value="" style="fontSize=12;html=1;endArrow=ERzeroToMany;endFill=1;rounded=0;exitX=0.649;exitY=-0.023;exitDx=0;exitDy=0;exitPerimeter=0;startArrow=ERone;startFill=0;endSize=10;startSize=10;" parent="1" source="AMUWhJ_4N7A-JBRG0hb9-51" edge="1">
          <mxGeometry width="100" height="100" relative="1" as="geometry">
            <mxPoint x="710" y="440" as="sourcePoint" />
            <mxPoint x="870" y="-250" as="targetPoint" />
            <Array as="points">
              <mxPoint x="713" y="280" />
              <mxPoint x="790" y="280" />
              <mxPoint x="790" y="-250" />
            </Array>
          </mxGeometry>
        </mxCell>
        <mxCell id="AMUWhJ_4N7A-JBRG0hb9-97" value="" style="fontSize=12;html=1;endArrow=ERzeroToMany;endFill=1;rounded=0;entryX=0.994;entryY=0.127;entryDx=0;entryDy=0;entryPerimeter=0;startArrow=ERone;startFill=0;endSize=10;startSize=10;" parent="1" target="AMUWhJ_4N7A-JBRG0hb9-91" edge="1">
          <mxGeometry width="100" height="100" relative="1" as="geometry">
            <mxPoint x="1259" y="800" as="sourcePoint" />
            <mxPoint x="1550" y="-282.9090465198864" as="targetPoint" />
            <Array as="points">
              <mxPoint x="1550" y="800" />
              <mxPoint x="1560" y="-300" />
            </Array>
          </mxGeometry>
        </mxCell>
        <mxCell id="AMUWhJ_4N7A-JBRG0hb9-98" value="" style="fontSize=12;html=1;endArrow=ERone;endFill=0;rounded=0;entryX=0;entryY=0.25;entryDx=0;entryDy=0;exitX=0.306;exitY=0.004;exitDx=0;exitDy=0;exitPerimeter=0;startArrow=ERzeroToMany;startFill=0;endSize=10;startSize=10;" parent="1" source="AMUWhJ_4N7A-JBRG0hb9-83" target="4nfFPMJlw5qFci8MI3dI-18" edge="1">
          <mxGeometry width="100" height="100" relative="1" as="geometry">
            <mxPoint x="1351.2308443509614" y="-360" as="sourcePoint" />
            <mxPoint x="110" y="560" as="targetPoint" />
            <Array as="points">
              <mxPoint x="1290" y="-360" />
              <mxPoint y="-360" />
              <mxPoint y="565" />
            </Array>
          </mxGeometry>
        </mxCell>
        <mxCell id="AMUWhJ_4N7A-JBRG0hb9-99" value="" style="fontSize=12;html=1;endArrow=ERzeroToMany;endFill=1;rounded=0;entryX=1;entryY=0.5;entryDx=0;entryDy=0;startArrow=ERone;startFill=0;endSize=10;startSize=10;" parent="1" target="AMUWhJ_4N7A-JBRG0hb9-83" edge="1">
          <mxGeometry width="100" height="100" relative="1" as="geometry">
            <mxPoint x="1260" y="830" as="sourcePoint" />
            <mxPoint x="1590" y="-192.78256623641303" as="targetPoint" />
            <Array as="points">
              <mxPoint x="1580" y="830" />
              <mxPoint x="1590" y="-180" />
            </Array>
          </mxGeometry>
        </mxCell>
      </root>
    </mxGraphModel>
  </diagram>
</mxfile>
